<svg xmlns="http://www.w3.org/2000/svg" viewBox="0 0 1180 640" role="img" aria-label="ListenUp workflow overview">
  <rect width="1180" height="640" fill="#f6f8fb"/>
  <text x="70" y="72" fill="#101828" font-family="Arial, sans-serif" font-size="34" font-weight="800">ListenUp Workflow Overview</text>
  <text x="70" y="112" fill="#667085" font-family="Arial, sans-serif" font-size="18">Owned media and captions move through a focused Studio Console into review, history, and export.</text>
  <g font-family="Arial, sans-serif" font-size="17" font-weight="700">
    <rect x="70" y="180" width="180" height="78" rx="14" fill="#ffffff" stroke="#d9e1ec"/>
    <text x="98" y="225" fill="#101828">User input</text>
    <rect x="310" y="130" width="185" height="64" rx="14" fill="#ffffff" stroke="#d9e1ec"/>
    <text x="342" y="170" fill="#101828">Upload media</text>
    <rect x="310" y="220" width="185" height="64" rx="14" fill="#ffffff" stroke="#d9e1ec"/>
    <text x="336" y="260" fill="#101828">Direct media URL</text>
    <rect x="310" y="310" width="185" height="64" rx="14" fill="#ffffff" stroke="#d9e1ec"/>
    <text x="340" y="350" fill="#101828">Paste captions</text>
    <rect x="560" y="180" width="210" height="78" rx="14" fill="#101828"/>
    <text x="604" y="225" fill="#ffffff">Studio Console</text>
    <rect x="830" y="110" width="220" height="64" rx="14" fill="#ffffff" stroke="#d9e1ec"/>
    <text x="868" y="150" fill="#101828">Editable transcript</text>
    <rect x="830" y="210" width="220" height="64" rx="14" fill="#ffffff" stroke="#d9e1ec"/>
    <text x="875" y="250" fill="#101828">Saved history</text>
    <rect x="830" y="310" width="220" height="64" rx="14" fill="#ffffff" stroke="#d9e1ec"/>
    <text x="878" y="350" fill="#101828">TXT / SRT / VTT</text>
  </g>
  <g stroke="#2454ff" stroke-width="4" fill="none" stroke-linecap="round">
    <path d="M250 219 H300"/>
    <path d="M495 162 C535 162 535 219 560 219"/>
    <path d="M495 252 H560"/>
    <path d="M495 342 C535 342 535 219 560 219"/>
    <path d="M770 219 C805 219 805 142 830 142"/>
    <path d="M770 219 H830"/>
    <path d="M770 219 C805 219 805 342 830 342"/>
  </g>
  <g transform="translate(80 500)">
    <rect width="1020" height="82" rx="16" fill="#ffffff" stroke="#d9e1ec"/>
    <text x="28" y="34" fill="#0f9f6e" font-family="Arial, sans-serif" font-size="18" font-weight="800">Safety posture</text>
    <text x="28" y="62" fill="#667085" font-family="Arial, sans-serif" font-size="17">Signed-in media processing, guided social handoff, private transcript data, and public documentation only.</text>
  </g>
</svg>

